<svg xmlns="http://www.w3.org/2000/svg" width="450.667" height="450.667" preserveAspectRatio="xMidYMid meet" version="1.0" viewBox="0 0 338 338"><metadata>Created by potrace 1.11, written by Peter Selinger 2001-2013</metadata><g fill="#000" stroke="none"><path d="M0 1690 l0 -1690 1690 0 1690 0 0 1690 0 1690 -1690 0 -1690 0 0 -1690z m2470 820 l0 -150 160 0 160 0 0 -480 0 -480 -160 0 -160 0 0 -320 0 -320 -160 0 -160 0 0 160 0 160 -150 0 -150 0 0 -160 0 -160 -170 0 -170 0 0 160 0 160 -140 0 -140 0 0 -160 0 -160 -170 0 -170 0 0 320 0 320 -160 0 -160 0 0 480 0 480 160 0 160 0 0 150 0 150 790 0 790 0 0 -150z" transform="translate(0.000000,338.000000) scale(0.100000,-0.100000)"/><path d="M910 1870 l0 -150 300 0 300 0 0 150 0 150 -300 0 -300 0 0 -150z" transform="translate(0.000000,338.000000) scale(0.100000,-0.100000)"/><path d="M1850 1870 l0 -150 300 0 300 0 0 150 0 150 -300 0 -300 0 0 -150z" transform="translate(0.000000,338.000000) scale(0.100000,-0.100000)"/></g></svg>